<!-- Generated by IcoMoon.io -->
<svg version="1.1" xmlns="http://www.w3.org/2000/svg" width="1024" height="1024" viewBox="0 0 1024 1024">
<title></title>
<g id="icomoon-ignore">
</g>
<path fill="" d="M843.762 512.181v-101.136h51.29v-104.025h79.825v-102.219h-307.742v-102.581h-51.29v-102.219h-204.439v102.219h-48.762v102.219h-309.187v102.581h75.129v102.581h51.29v204.8h-50.929v102.219h-77.658v102.219h309.187v102.219h48.762v102.219h204.439v-102.219h51.29v-102.219h306.658v-102.219h-77.658v-102.219h-51.29v-102.219zM690.252 614.4h-51.29v102.219h-253.923v-102.219h-51.651v-203.355h51.29v-104.025h254.284v102.942h51.29v204.439zM792.832 307.019v102.942h-51.29v-102.942h51.29zM513.264 102.219h51.29v102.219h-100.052v-102.219h48.762zM231.168 307.019h51.29v102.581h-51.29v-102.581zM231.168 716.619v-102.219h51.29v102.219h-51.29zM563.11 921.419h-100.052v-102.219h100.052v102.219zM792.832 716.619h-51.29v-102.219h51.29v102.219z"></path>
</svg>
