<!-- Generated by IcoMoon.io -->
<svg version="1.1" xmlns="http://www.w3.org/2000/svg" width="1024" height="1024" viewBox="0 0 1024 1024">
<title></title>
<g id="icomoon-ignore">
</g>
<path fill="" d="M767.187 563.832h-102.219v102.219h102.219v102.219h102.219v-102.219h-102.219z"></path>
<path fill="" d="M562.387 666.051h102.219v102.219h-102.219v-102.219z"></path>
<path fill="" d="M383.594 870.129v-102.219h102.219v-102.219h-102.219v-102.219h-102.219v102.219h-102.219v102.219h102.219v102.219z"></path>
<path fill="" d="M307.019 511.819h511.819v-102.219h-204.8v-102.581h204.8v-307.019h-102.219v204.8h-204.8v102.219h-102.219v102.581h-204.8v102.219h68.989z"></path>
<path fill="" d="M922.864 511.819v-0.722h-103.664v103.664h102.219v204.439h-102.219v102.219h-614.761v-102.219h-102.219v-205.161h102.219v-102.219h-204.439v409.6h102.219v102.219h819.2v-102.219h102.219v-409.6z"></path>
<path fill="" d="M664.968 768.632h102.219v102.219h-102.219v-102.219z"></path>
</svg>
