<!-- Generated by IcoMoon.io -->
<svg version="1.1" xmlns="http://www.w3.org/2000/svg" width="1024" height="1024" viewBox="0 0 1024 1024">
<title></title>
<g id="icomoon-ignore">
</g>
<path fill="" d="M0 921.419h102.219v102.219h-102.219v-102.219z"></path>
<path fill="" d="M204.8 716.619v51.29h-51.29v51.29h-51.29v102.219h102.581v-51.29h51.29v-50.929h50.929v-102.581z"></path>
<path fill="" d="M307.019 921.419h51.29v51.29h51.29v51.29h102.219v-102.581h-50.929v-51.29h-51.29v-50.929h-102.581z"></path>
<path fill="" d="M921.419 0h-204.439v49.123h-51.29v53.096h-51.29v51.29h-51.29v51.29h-51.29v44.428h-46.595v57.792h-55.625v50.929h-55.625v51.651h-46.956v50.929h-54.18v52.374h-48.040v101.497h-51.29v-51.651h-51.29v-50.207h-102.219v102.219h51.29v50.207h51.29v51.651h102.219v-101.497h102.219v101.497h102.219v-102.219h-102.219v-51.651h48.040v-50.929h54.18v-51.651h46.956v-50.929h55.625v-57.792h55.625v-44.428h46.595v-50.929h51.29v-51.29h51.29v-53.096h51.29v-49.484h153.51v153.149h-51.29v51.29h-51.29v-101.858h-102.219v53.457h-51.29v48.762h-51.29v102.219h102.219v52.013h-51.29v50.207h-51.29v52.374h-51.29v50.207h-51.29v51.651h-51.29v51.29h-51.29v102.219h102.219v-51.29h51.29v-51.651h51.29v-50.207h51.29v-52.013h51.29v-50.207h51.29v-52.374h51.29v-48.762h51.29v-53.457h51.29v-51.29h51.29v-50.929h51.29v-307.019h-102.219zM767.91 409.239h-51.29v-48.401h51.29v48.401zM819.2 360.477h-51.29v-53.457h51.29v53.457z"></path>
</svg>
