<svg id="レイヤー_1" data-name="レイヤー 1" xmlns="http://www.w3.org/2000/svg" viewBox="0 0 299 299"><defs><style>.cls-1{fill:none;}</style></defs><title>skull</title><polygon class="cls-1" points="168.19 56.06 168.19 74.75 168.19 93.44 186.88 93.44 205.56 93.44 205.56 74.75 205.56 56.06 205.56 37.38 186.88 37.38 168.19 37.38 168.19 56.06"/><polygon class="cls-1" points="93.44 74.75 93.44 93.44 112.13 93.44 130.81 93.44 130.81 74.75 130.81 56.06 130.81 37.38 112.13 37.38 93.44 37.38 93.44 56.06 93.44 74.75"/><polygon class="cls-1" points="112.13 186.88 130.81 186.88 130.81 205.56 149.5 205.56 168.19 205.56 168.19 186.88 186.88 186.88 205.56 186.88 205.56 168.19 186.88 168.19 168.19 168.19 168.19 149.5 149.5 149.5 130.81 149.5 130.81 168.19 112.13 168.19 93.44 168.19 93.44 186.88 112.13 186.88"/><polygon points="280.31 130.81 280.31 149.5 261.63 149.5 242.94 149.5 242.94 168.19 224.25 168.19 205.56 168.19 205.56 186.88 186.88 186.88 168.19 186.88 168.19 205.56 149.5 205.56 130.81 205.56 130.81 186.88 112.13 186.88 93.44 186.88 93.44 168.19 74.75 168.19 56.06 168.19 56.06 149.5 37.38 149.5 18.69 149.5 18.69 130.81 0 130.81 0 149.5 0 168.19 18.69 168.19 37.38 168.19 37.38 186.88 56.06 186.88 74.75 186.88 74.75 205.56 93.44 205.56 112.13 205.56 112.13 224.25 93.44 224.25 93.44 242.94 74.75 242.94 56.06 242.94 56.06 261.63 37.38 261.63 18.69 261.63 18.69 280.31 0 280.31 0 299 18.69 299 37.38 299 37.38 280.31 56.06 280.31 74.75 280.31 74.75 261.63 93.44 261.63 112.13 261.63 112.13 242.94 130.81 242.94 149.5 242.94 168.19 242.94 186.88 242.94 186.88 261.63 205.56 261.63 224.25 261.63 224.25 280.31 242.94 280.31 261.63 280.31 261.63 299 280.31 299 299 299 299 280.31 280.31 280.31 280.31 261.63 261.63 261.63 242.94 261.63 242.94 242.94 224.25 242.94 205.56 242.94 205.56 224.25 186.88 224.25 186.88 205.56 205.56 205.56 224.25 205.56 224.25 186.88 242.94 186.88 261.63 186.88 261.63 168.19 280.31 168.19 299 168.19 299 149.5 299 130.81 280.31 130.81"/><path d="M131.31,168.69V150h37.38v18.69h37.37V131.31h18.69V112.62h18.69V37.88H224.75V19.19H187.38V.5H112.62V19.19H75.25V37.88H56.56v74.74H75.25v18.69H93.94v37.38h37.37ZM206.06,37.88V93.94H168.69V37.88h37.37Zm-93.44,0h18.69V93.94H93.94V37.88Z" transform="translate(-0.5 -0.5)"/></svg>