<svg id="レイヤー_1" data-name="レイヤー 1" xmlns="http://www.w3.org/2000/svg" viewBox="0 0 299 299"><defs><style>.cls-1{fill:none;}</style></defs><title>torophy</title><polygon class="cls-1" points="74.75 112.13 74.75 93.44 74.75 74.75 74.75 56.06 56.06 56.06 37.38 56.06 37.38 74.75 37.38 93.44 56.06 93.44 56.06 112.13 74.75 112.13"/><polygon class="cls-1" points="261.63 56.06 242.94 56.06 224.25 56.06 224.25 74.75 224.25 93.44 224.25 112.13 242.94 112.13 242.94 93.44 261.63 93.44 261.63 74.75 261.63 56.06"/><path d="M280.81,56.56V37.88H243.44V19.19H187.38V.5H112.62V19.19H56.56V37.88H19.19V56.56H.5V93.94H19.19v18.68H37.88v18.69H56.56V150H93.94v18.69h18.68v18.69h18.69v56.06H112.62v18.68H93.94v18.69H75.25V299.5h149.5V280.81H206.06V262.12H187.38V243.44H168.69V187.38h18.69V168.69h18.68V150h37.38V131.31h18.68V112.62h18.69V93.94H299.5V56.56ZM37.88,93.94V56.56H75.25v56.06H56.56V93.94Zm205.56,0v18.68H224.75V56.56h37.37V93.94Z" transform="translate(-0.5 -0.5)"/></svg>